<svg width="190" height="42" viewBox="0 0 190 42" fill="none" xmlns="http://www.w3.org/2000/svg">
<path d="M4.71148 39.7601V34.0203L1.55681 39.7601H0.62793V33.626H1.50423V39.0591L4.52746 33.626H5.58779V39.7601H4.71148Z" fill="#F9F9F9"/>
<path d="M8.00083 35.4662V37.175H9.96373V35.4662H10.7524V39.7601H9.96373V37.4379H8.00083V39.7601H7.21216V35.4662H8.00083Z" fill="#F9F9F9"/>
<path d="M14.3244 39.7601H12.0547V35.4662H14.0439C14.3945 35.4662 14.6778 35.5714 14.894 35.7817C15.1101 35.992 15.2182 36.2491 15.2182 36.5528C15.2182 37.026 15.0546 37.3415 14.7274 37.4992C14.9494 37.5518 15.1364 37.6628 15.2883 37.8322C15.4752 38.0309 15.5687 38.2762 15.5687 38.5683C15.5687 38.9013 15.4606 39.1847 15.2445 39.4183C15.0283 39.6462 14.7216 39.7601 14.3244 39.7601ZM13.7285 35.7291H12.8434V37.3766H13.7285C13.9914 37.3766 14.1958 37.2977 14.3419 37.14C14.4938 36.9822 14.5697 36.7865 14.5697 36.5528C14.5697 36.3308 14.4908 36.1381 14.3331 35.9745C14.1754 35.8109 13.9738 35.7291 13.7285 35.7291ZM13.9914 37.6394H12.8434V39.4972H13.9914C14.2542 39.4972 14.4616 39.4125 14.6135 39.2431C14.7596 39.062 14.8326 38.8371 14.8326 38.5683C14.8326 38.3288 14.7537 38.1156 14.596 37.9286C14.4441 37.7358 14.2426 37.6394 13.9914 37.6394Z" fill="#F9F9F9"/>
<path d="M20.0347 36.8858C20.0347 37.1312 19.9734 37.3181 19.8507 37.4467C19.728 37.5752 19.5177 37.6394 19.2198 37.6394H17.3182V38.7611C17.3182 39.0415 17.3854 39.246 17.5198 39.3745C17.66 39.4972 17.9141 39.5585 18.2821 39.5585C18.6911 39.5585 18.9627 39.4972 19.0971 39.3745C19.2315 39.2518 19.2987 39.0328 19.2987 38.7173H20.026C20.026 39.0912 19.8858 39.3687 19.6054 39.5498C19.3249 39.7309 18.8839 39.8214 18.2821 39.8214C17.622 39.8214 17.1634 39.7163 16.9064 39.506C16.6493 39.2898 16.5208 38.9159 16.5208 38.3843V36.7631C16.5208 36.2899 16.6727 35.9423 16.9765 35.7204C17.2802 35.4925 17.7155 35.3786 18.2821 35.3786C18.843 35.3786 19.2753 35.4691 19.5791 35.6502C19.8829 35.8313 20.0347 36.1118 20.0347 36.4915V36.8858ZM19.2461 36.4827C19.2461 36.1673 19.1906 35.954 19.0796 35.843C18.9452 35.7087 18.6794 35.6415 18.2821 35.6415C17.9082 35.6415 17.6541 35.7087 17.5198 35.843C17.3854 35.9657 17.3182 36.1643 17.3182 36.4389V37.3766H18.6414C18.8693 37.3766 19.027 37.3415 19.1146 37.2714C19.2023 37.2013 19.2461 37.0698 19.2461 36.8771V36.4827Z" fill="#F9F9F9"/>
<path d="M23.3402 35.6502C22.8553 35.6502 22.4756 35.8314 22.201 36.1936C21.9264 36.5558 21.7891 37.0494 21.7891 37.6745C21.7891 38.2879 21.9264 38.767 22.201 39.1116C22.4756 39.4505 22.8582 39.6199 23.3489 39.6199C23.6177 39.6199 23.866 39.5498 24.0938 39.4096C24.2457 39.3161 24.3888 39.1847 24.5232 39.0152L24.8124 39.2781C24.6429 39.4651 24.4531 39.6053 24.2428 39.6987C23.9623 39.8214 23.6206 39.8828 23.2175 39.8828C22.6158 39.8828 22.1017 39.7046 21.6752 39.3482C21.202 38.9451 20.9654 38.3872 20.9654 37.6745C20.9654 36.915 21.1962 36.3308 21.6577 35.9219C22.0608 35.5714 22.5807 35.3961 23.2175 35.3961C23.6264 35.3961 23.977 35.475 24.2691 35.6327C24.4443 35.732 24.6166 35.881 24.7861 36.0796L24.4794 36.3162C24.3099 36.1001 24.1464 35.9423 23.9886 35.843C23.7842 35.7145 23.568 35.6502 23.3402 35.6502Z" fill="#F9F9F9"/>
<path d="M25.5934 35.4662H28.5728V35.7291H27.495V39.7601H26.7063V35.7291H25.5934V35.4662Z" fill="#F9F9F9"/>
<path d="M32.8685 39.7601V36.3162C32.8685 36.141 32.8334 36.0533 32.7633 36.0533L32.6845 36.0796L32.553 36.2461L30.4499 39.2255L30.2045 39.5673C30.0877 39.7134 29.9592 39.7864 29.819 39.7864C29.5794 39.7864 29.4597 39.579 29.4597 39.1642V35.4662H30.2484V38.507C30.2484 38.6121 30.2659 38.6647 30.3009 38.6647C30.336 38.6647 30.3886 38.618 30.4587 38.5245L32.1324 36.1673C32.3252 35.8869 32.4595 35.7087 32.5355 35.6327C32.7049 35.4575 32.886 35.3698 33.0788 35.3698C33.3066 35.3698 33.4702 35.475 33.5695 35.6853C33.6279 35.843 33.6572 36.0621 33.6572 36.3425V39.7601H32.8685Z" fill="#F9F9F9"/>
<path d="M34.9737 39.7601V35.4662H35.7623V39.4972H37.4711V35.4662H38.2598V39.4972H38.8206L38.3649 41.1184H37.8392L38.216 39.7601H34.9737Z" fill="#F9F9F9"/>
<path d="M43.1205 39.7601V36.3162C43.1205 36.141 43.0855 36.0533 43.0154 36.0533L42.9365 36.0796L42.805 36.2461L40.7019 39.2255L40.4566 39.5673C40.3397 39.7134 40.2112 39.7864 40.071 39.7864C39.8315 39.7864 39.7117 39.579 39.7117 39.1642V35.4662H40.5004V38.507C40.5004 38.6121 40.5179 38.6647 40.553 38.6647C40.588 38.6647 40.6406 38.618 40.7107 38.5245L42.3844 36.1673C42.5772 35.8869 42.7116 35.7087 42.7875 35.6327C42.9569 35.4575 43.138 35.3698 43.3308 35.3698C43.5587 35.3698 43.7222 35.475 43.8215 35.6853C43.88 35.843 43.9092 36.0621 43.9092 36.3425V39.7601H43.1205Z" fill="#F9F9F9"/>
<path d="M48.5118 39.7601V36.3162C48.5118 36.141 48.4768 36.0533 48.4067 36.0533L48.3278 36.0796L48.1963 36.2461L46.0932 39.2255L45.8479 39.5673C45.731 39.7134 45.6025 39.7864 45.4623 39.7864C45.2228 39.7864 45.103 39.579 45.103 39.1642V35.4662H45.8917V38.507C45.8917 38.6121 45.9092 38.6647 45.9443 38.6647C45.9793 38.6647 46.0319 38.618 46.102 38.5245L47.7757 36.1673C47.9685 35.8869 48.1029 35.7087 48.1788 35.6327C48.3482 35.4575 48.5293 35.3698 48.7221 35.3698C48.95 35.3698 49.1135 35.475 49.2128 35.6853C49.2713 35.843 49.3005 36.0621 49.3005 36.3425V39.7601H48.5118Z" fill="#F9F9F9"/>
<path d="M53.7682 39.7601V33.626H54.6971L56.8879 38.3493L58.9997 33.626H59.7709V39.7601H58.8946V34.5198L56.5373 39.8828L54.0399 34.5198V39.7601H53.7682Z" fill="#F9F9F9"/>
<path d="M64.2048 36.4214C64.2048 36.141 64.1317 35.9394 63.9857 35.8167C63.8455 35.6882 63.5709 35.624 63.162 35.624C62.7413 35.624 62.4551 35.6882 62.3032 35.8167C62.1513 35.9394 62.0753 36.1556 62.0753 36.4652H61.348C61.348 36.0972 61.5116 35.8226 61.8387 35.6415C62.1659 35.4545 62.607 35.3611 63.162 35.3611C63.8572 35.3611 64.3362 35.4458 64.5991 35.6152C64.8678 35.7846 65.0022 36.0913 65.0022 36.5353V39.7601H62.6099C62.1367 39.7601 61.7745 39.6491 61.5233 39.4271C61.2779 39.2051 61.1552 38.9159 61.1552 38.5596C61.1552 38.1565 61.3071 37.8264 61.6109 37.5693C61.9147 37.3123 62.3528 37.1838 62.9253 37.1838H64.2048V36.4214ZM64.2048 39.506V37.4467H62.8815C62.5778 37.4467 62.3412 37.5489 62.1717 37.7534C62.0023 37.9578 61.9176 38.212 61.9176 38.5157C61.9176 38.8195 61.9906 39.062 62.1367 39.2431C62.2886 39.4183 62.5135 39.506 62.8114 39.506H64.2048Z" fill="#F9F9F9"/>
<path d="M68.4473 35.6502C67.9625 35.6502 67.5827 35.8314 67.3081 36.1936C67.0336 36.5558 66.8963 37.0494 66.8963 37.6745C66.8963 38.2879 67.0336 38.767 67.3081 39.1116C67.5827 39.4505 67.9654 39.6199 68.4561 39.6199C68.7248 39.6199 68.9731 39.5498 69.201 39.4096C69.3529 39.3161 69.496 39.1847 69.6303 39.0152L69.9195 39.2781C69.7501 39.4651 69.5602 39.6053 69.3499 39.6987C69.0695 39.8214 68.7278 39.8828 68.3247 39.8828C67.7229 39.8828 67.2088 39.7046 66.7824 39.3482C66.3092 38.9451 66.0726 38.3872 66.0726 37.6745C66.0726 36.915 66.3033 36.3308 66.7648 35.9219C67.1679 35.5714 67.6879 35.3961 68.3247 35.3961C68.7336 35.3961 69.0841 35.475 69.3762 35.6327C69.5515 35.732 69.7238 35.881 69.8932 36.0796L69.5865 36.3162C69.4171 36.1001 69.2535 35.9423 69.0958 35.843C68.8913 35.7145 68.6752 35.6502 68.4473 35.6502Z" fill="#F9F9F9"/>
<path d="M73.9692 39.4972H75.2836V35.4662H76.0723V39.7601H71.0774V35.4662H71.8661V39.4972H73.1805V35.4662H73.9692V39.4972Z" fill="#F9F9F9"/>
<path d="M77.0846 35.4662H80.064V35.7291H78.9861V39.7601H78.1975V35.7291H77.0846V35.4662Z" fill="#F9F9F9"/>
<path d="M83.9215 36.4214C83.9215 36.141 83.8484 35.9394 83.7024 35.8167C83.5622 35.6882 83.2876 35.624 82.8787 35.624C82.4581 35.624 82.1718 35.6882 82.0199 35.8167C81.868 35.9394 81.7921 36.1556 81.7921 36.4652H81.0647C81.0647 36.0972 81.2283 35.8226 81.5555 35.6415C81.8826 35.4545 82.3237 35.3611 82.8787 35.3611C83.5739 35.3611 84.0529 35.4458 84.3158 35.6152C84.5845 35.7846 84.7189 36.0913 84.7189 36.5353V39.7601H82.3266C81.8534 39.7601 81.4912 39.6491 81.24 39.4271C80.9946 39.2051 80.872 38.9159 80.872 38.5596C80.872 38.1565 81.0239 37.8264 81.3276 37.5693C81.6314 37.3123 82.0696 37.1838 82.6421 37.1838H83.9215V36.4214ZM83.9215 39.506V37.4467H82.5983C82.2945 37.4467 82.0579 37.5489 81.8885 37.7534C81.719 37.9578 81.6343 38.212 81.6343 38.5157C81.6343 38.8195 81.7074 39.062 81.8534 39.2431C82.0053 39.4183 82.2302 39.506 82.5282 39.506H83.9215Z" fill="#F9F9F9"/>
<path d="M89.9079 33.4595L89.9429 33.3982C89.9605 33.404 89.978 33.4128 89.9955 33.4244C90.0131 33.4303 90.0277 33.4478 90.0393 33.477L90.0744 33.6961C90.0744 33.7896 90.0598 33.8743 90.0306 33.9502C90.0131 34.0203 89.9722 34.0963 89.9079 34.1781C89.867 34.2306 89.7765 34.2774 89.6363 34.3183C89.496 34.3533 89.3208 34.3708 89.1105 34.3708C88.9235 34.3708 88.7541 34.3796 88.6022 34.3971C88.4503 34.4088 88.3218 34.4263 88.2166 34.4497C87.7843 34.5198 87.428 34.6717 87.1476 34.9054C86.8029 35.1975 86.5692 35.6502 86.4465 36.2637C86.5692 36.0008 86.7503 35.7875 86.9898 35.624C87.2644 35.4429 87.5886 35.3523 87.9625 35.3523C88.6752 35.3523 89.239 35.586 89.6538 36.0533C90.0277 36.4798 90.2146 36.9997 90.2146 37.6132C90.2146 38.2324 90.0247 38.7494 89.645 39.1642C89.2244 39.6374 88.6489 39.874 87.9187 39.874C87.352 39.874 86.8642 39.652 86.4553 39.208C86.0288 38.7348 85.8156 38.1389 85.8156 37.4204C85.8156 36.5674 86.0084 35.8167 86.3939 35.1683C86.8963 34.327 87.6792 33.8305 88.7424 33.6786C88.9235 33.6786 89.0491 33.6757 89.1192 33.6698C89.1893 33.664 89.3442 33.6435 89.5837 33.6085C89.7589 33.5909 89.867 33.5413 89.9079 33.4595ZM86.6043 37.5869C86.6043 38.1419 86.7182 38.6121 86.946 38.9977C87.2031 39.4242 87.5565 39.6374 88.0063 39.6374C88.4445 39.6374 88.795 39.4242 89.0579 38.9977C89.2916 38.6005 89.4084 38.1302 89.4084 37.5869C89.4084 37.0377 89.2945 36.5704 89.0667 36.1848C88.8096 35.7583 88.4562 35.5451 88.0063 35.5451C87.5682 35.5451 87.2177 35.7583 86.9548 36.1848C86.8379 36.3834 86.7503 36.5966 86.6919 36.8245C86.6335 37.0465 86.6043 37.3006 86.6043 37.5869Z" fill="#F9F9F9"/>
<path d="M94.5004 39.7601V36.3162C94.5004 36.141 94.4653 36.0533 94.3952 36.0533L94.3164 36.0796L94.1849 36.2461L92.0818 39.2255L91.8365 39.5673C91.7196 39.7134 91.5911 39.7864 91.4509 39.7864C91.2114 39.7864 91.0916 39.579 91.0916 39.1642V35.4662H91.8803V38.507C91.8803 38.6121 91.8978 38.6647 91.9329 38.6647C91.9679 38.6647 92.0205 38.618 92.0906 38.5245L93.7643 36.1673C93.9571 35.8869 94.0915 35.7087 94.1674 35.6327C94.3368 35.4575 94.5179 35.3698 94.7107 35.3698C94.9386 35.3698 95.1021 35.475 95.2014 35.6853C95.2599 35.843 95.2891 36.0621 95.2891 36.3425V39.7601H94.5004Z" fill="#F9F9F9"/>
<path d="M96.4391 35.4662H98.2793C99.0329 35.4662 99.6317 35.6882 100.076 36.1322C100.473 36.5412 100.672 37.0406 100.672 37.6307C100.672 38.1974 100.473 38.6822 100.076 39.0853C99.6376 39.5352 99.0388 39.7601 98.2793 39.7601H97.2278V41.4952H96.4391V35.4662ZM97.2278 39.4972H98.367C98.846 39.4972 99.2111 39.3249 99.4623 38.9802C99.7135 38.6297 99.8391 38.1798 99.8391 37.6307C99.8391 37.0465 99.7135 36.5908 99.4623 36.2637C99.1936 35.9073 98.8139 35.7291 98.3231 35.7291H97.2278V39.4972Z" fill="#F9F9F9"/>
<path d="M101.389 37.6044C101.389 36.9968 101.582 36.4769 101.968 36.0446C102.4 35.5714 102.984 35.3348 103.72 35.3348C104.45 35.3348 105.035 35.5714 105.473 36.0446C105.858 36.4652 106.051 36.9851 106.051 37.6044C106.051 38.212 105.858 38.7348 105.473 39.173C105.052 39.6462 104.468 39.8828 103.72 39.8828C102.99 39.8828 102.406 39.6462 101.968 39.173C101.582 38.7523 101.389 38.2295 101.389 37.6044ZM105.262 37.5869C105.262 37.0202 105.137 36.547 104.886 36.1673C104.599 35.7408 104.211 35.5276 103.72 35.5276C103.235 35.5276 102.85 35.7408 102.563 36.1673C102.306 36.5587 102.178 37.0319 102.178 37.5869C102.178 38.1535 102.303 38.6267 102.555 39.0065C102.841 39.4329 103.229 39.6462 103.72 39.6462C104.205 39.6462 104.591 39.4329 104.877 39.0065C105.134 38.6151 105.262 38.1419 105.262 37.5869Z" fill="#F9F9F9"/>
<path d="M109.374 39.7601H107.104V35.4662H109.093C109.444 35.4662 109.727 35.5714 109.943 35.7817C110.159 35.992 110.268 36.2491 110.268 36.5528C110.268 37.026 110.104 37.3415 109.777 37.4992C109.999 37.5518 110.186 37.6628 110.338 37.8322C110.525 38.0309 110.618 38.2762 110.618 38.5683C110.618 38.9013 110.51 39.1847 110.294 39.4183C110.078 39.6462 109.771 39.7601 109.374 39.7601ZM108.778 35.7291H107.893V37.3766H108.778C109.041 37.3766 109.245 37.2977 109.391 37.14C109.543 36.9822 109.619 36.7865 109.619 36.5528C109.619 36.3308 109.54 36.1381 109.382 35.9745C109.225 35.8109 109.023 35.7291 108.778 35.7291ZM109.041 37.6394H107.893V39.4972H109.041C109.304 39.4972 109.511 39.4125 109.663 39.2431C109.809 39.062 109.882 38.8371 109.882 38.5683C109.882 38.3288 109.803 38.1156 109.645 37.9286C109.494 37.7358 109.292 37.6394 109.041 37.6394Z" fill="#F9F9F9"/>
<path d="M114.532 36.4214C114.532 36.141 114.459 35.9394 114.313 35.8167C114.173 35.6882 113.898 35.624 113.489 35.624C113.069 35.624 112.782 35.6882 112.63 35.8167C112.479 35.9394 112.403 36.1556 112.403 36.4652H111.675C111.675 36.0972 111.839 35.8226 112.166 35.6415C112.493 35.4545 112.934 35.3611 113.489 35.3611C114.184 35.3611 114.663 35.4458 114.926 35.6152C115.195 35.7846 115.329 36.0913 115.329 36.5353V39.7601H112.937C112.464 39.7601 112.102 39.6491 111.851 39.4271C111.605 39.2051 111.483 38.9159 111.483 38.5596C111.483 38.1565 111.634 37.8264 111.938 37.5693C112.242 37.3123 112.68 37.1838 113.253 37.1838H114.532V36.4214ZM114.532 39.506V37.4467H113.209C112.905 37.4467 112.668 37.5489 112.499 37.7534C112.33 37.9578 112.245 38.212 112.245 38.5157C112.245 38.8195 112.318 39.062 112.464 39.2431C112.616 39.4183 112.841 39.506 113.139 39.506H114.532Z" fill="#F9F9F9"/>
<path d="M117.504 35.4662V37.175H119.467V35.4662H120.256V39.7601H119.467V37.4379H117.504V39.7601H116.715V35.4662H117.504Z" fill="#F9F9F9"/>
<path d="M124.914 39.7601V36.3162C124.914 36.141 124.879 36.0533 124.809 36.0533L124.73 36.0796L124.599 36.2461L122.496 39.2255L122.25 39.5673C122.133 39.7134 122.005 39.7864 121.865 39.7864C121.625 39.7864 121.505 39.579 121.505 39.1642V35.4662H122.294V38.507C122.294 38.6121 122.312 38.6647 122.347 38.6647C122.382 38.6647 122.434 38.618 122.504 38.5245L124.178 36.1673C124.371 35.8869 124.505 35.7087 124.581 35.6327C124.751 35.4575 124.932 35.3698 125.124 35.3698C125.352 35.3698 125.516 35.475 125.615 35.6853C125.674 35.843 125.703 36.0621 125.703 36.3425V39.7601H124.914Z" fill="#F9F9F9"/>
<path d="M130.419 36.8858C130.419 37.1312 130.358 37.3181 130.235 37.4467C130.113 37.5752 129.902 37.6394 129.604 37.6394H127.703V38.7611C127.703 39.0415 127.77 39.246 127.904 39.3745C128.045 39.4972 128.299 39.5585 128.667 39.5585C129.076 39.5585 129.347 39.4972 129.482 39.3745C129.616 39.2518 129.683 39.0328 129.683 38.7173H130.411C130.411 39.0912 130.27 39.3687 129.99 39.5498C129.71 39.7309 129.268 39.8214 128.667 39.8214C128.007 39.8214 127.548 39.7163 127.291 39.506C127.034 39.2898 126.905 38.9159 126.905 38.3843V36.7631C126.905 36.2899 127.057 35.9423 127.361 35.7204C127.665 35.4925 128.1 35.3786 128.667 35.3786C129.228 35.3786 129.66 35.4691 129.964 35.6502C130.267 35.8313 130.419 36.1118 130.419 36.4915V36.8858ZM129.631 36.4827C129.631 36.1673 129.575 35.954 129.464 35.843C129.33 35.7087 129.064 35.6415 128.667 35.6415C128.293 35.6415 128.039 35.7087 127.904 35.843C127.77 35.9657 127.703 36.1643 127.703 36.4389V37.3766H129.026C129.254 37.3766 129.412 37.3415 129.499 37.2714C129.587 37.2013 129.631 37.0698 129.631 36.8771V36.4827Z" fill="#F9F9F9"/>
<path d="M134.869 39.7601L135.246 41.1184H134.72L134.265 39.4972H134.826L137.56 33.3631L140.294 39.4972H140.846L140.39 41.1184H139.864L140.241 39.7601H134.869ZM139.409 39.4972L137.262 34.7038L135.123 39.4972H139.409Z" fill="#F9F9F9"/>
<path d="M145.173 36.8858C145.173 37.1312 145.111 37.3181 144.989 37.4467C144.866 37.5752 144.656 37.6394 144.358 37.6394H142.456V38.7611C142.456 39.0415 142.523 39.246 142.658 39.3745C142.798 39.4972 143.052 39.5585 143.42 39.5585C143.829 39.5585 144.101 39.4972 144.235 39.3745C144.369 39.2518 144.437 39.0328 144.437 38.7173H145.164C145.164 39.0912 145.024 39.3687 144.743 39.5498C144.463 39.7309 144.022 39.8214 143.42 39.8214C142.76 39.8214 142.301 39.7163 142.044 39.506C141.787 39.2898 141.659 38.9159 141.659 38.3843V36.7631C141.659 36.2899 141.811 35.9423 142.114 35.7204C142.418 35.4925 142.853 35.3786 143.42 35.3786C143.981 35.3786 144.413 35.4691 144.717 35.6502C145.021 35.8313 145.173 36.1118 145.173 36.4915V36.8858ZM144.384 36.4827C144.384 36.1673 144.329 35.954 144.218 35.843C144.083 35.7087 143.817 35.6415 143.42 35.6415C143.046 35.6415 142.792 35.7087 142.658 35.843C142.523 35.9657 142.456 36.1643 142.456 36.4389V37.3766H143.779C144.007 37.3766 144.165 37.3415 144.253 37.2714C144.34 37.2013 144.384 37.0698 144.384 36.8771V36.4827Z" fill="#F9F9F9"/>
<path d="M148.645 39.7601H146.375V35.4662H148.364C148.715 35.4662 148.998 35.5714 149.214 35.7817C149.43 35.992 149.538 36.2491 149.538 36.5528C149.538 37.026 149.375 37.3415 149.048 37.4992C149.27 37.5518 149.457 37.6628 149.609 37.8322C149.795 38.0309 149.889 38.2762 149.889 38.5683C149.889 38.9013 149.781 39.1847 149.565 39.4183C149.349 39.6462 149.042 39.7601 148.645 39.7601ZM148.049 35.7291H147.164V37.3766H148.049C148.312 37.3766 148.516 37.2977 148.662 37.14C148.814 36.9822 148.89 36.7865 148.89 36.5528C148.89 36.3308 148.811 36.1381 148.653 35.9745C148.496 35.8109 148.294 35.7291 148.049 35.7291ZM148.312 37.6394H147.164V39.4972H148.312C148.575 39.4972 148.782 39.4125 148.934 39.2431C149.08 39.062 149.153 38.8371 149.153 38.5683C149.153 38.3288 149.074 38.1156 148.916 37.9286C148.764 37.7358 148.563 37.6394 148.312 37.6394Z" fill="#F9F9F9"/>
<path d="M154.355 36.8858C154.355 37.1312 154.294 37.3181 154.171 37.4467C154.048 37.5752 153.838 37.6394 153.54 37.6394H151.638V38.7611C151.638 39.0415 151.706 39.246 151.84 39.3745C151.98 39.4972 152.234 39.5585 152.602 39.5585C153.011 39.5585 153.283 39.4972 153.417 39.3745C153.552 39.2518 153.619 39.0328 153.619 38.7173H154.346C154.346 39.0912 154.206 39.3687 153.926 39.5498C153.645 39.7309 153.204 39.8214 152.602 39.8214C151.942 39.8214 151.484 39.7163 151.227 39.506C150.97 39.2898 150.841 38.9159 150.841 38.3843V36.7631C150.841 36.2899 150.993 35.9423 151.297 35.7204C151.6 35.4925 152.036 35.3786 152.602 35.3786C153.163 35.3786 153.596 35.4691 153.899 35.6502C154.203 35.8313 154.355 36.1118 154.355 36.4915V36.8858ZM153.566 36.4827C153.566 36.1673 153.511 35.954 153.4 35.843C153.265 35.7087 153 35.6415 152.602 35.6415C152.229 35.6415 151.974 35.7087 151.84 35.843C151.706 35.9657 151.638 36.1643 151.638 36.4389V37.3766H152.962C153.19 37.3766 153.347 37.3415 153.435 37.2714C153.523 37.2013 153.566 37.0698 153.566 36.8771V36.4827Z" fill="#F9F9F9"/>
<path d="M159.054 39.7601H158.177L156.924 36.7719C156.907 36.696 156.857 36.658 156.775 36.658C156.717 36.658 156.67 36.693 156.635 36.7631L155.417 39.7601H155.11L156.749 35.7291C156.796 35.6006 156.837 35.5188 156.872 35.4837C156.907 35.4487 156.956 35.4312 157.021 35.4312C157.091 35.4312 157.149 35.4633 157.196 35.5276L157.292 35.7291L159.054 39.7601Z" fill="#F9F9F9"/>
<path d="M159.607 37.6044C159.607 36.9968 159.799 36.4769 160.185 36.0446C160.617 35.5714 161.201 35.3348 161.938 35.3348C162.668 35.3348 163.252 35.5714 163.69 36.0446C164.076 36.4652 164.269 36.9851 164.269 37.6044C164.269 38.212 164.076 38.7348 163.69 39.173C163.27 39.6462 162.685 39.8828 161.938 39.8828C161.207 39.8828 160.623 39.6462 160.185 39.173C159.799 38.7523 159.607 38.2295 159.607 37.6044ZM163.48 37.5869C163.48 37.0202 163.354 36.547 163.103 36.1673C162.817 35.7408 162.428 35.5276 161.938 35.5276C161.453 35.5276 161.067 35.7408 160.781 36.1673C160.524 36.5587 160.395 37.0319 160.395 37.5869C160.395 38.1535 160.521 38.6267 160.772 39.0065C161.058 39.4329 161.447 39.6462 161.938 39.6462C162.422 39.6462 162.808 39.4329 163.094 39.0065C163.351 38.6151 163.48 38.1419 163.48 37.5869Z" fill="#F9F9F9"/>
<path d="M168.967 35.4662V39.7601H168.178V35.7291H166.215V39.7601H165.427V35.4662H168.967Z" fill="#F9F9F9"/>
<path d="M172.685 38.6472L174.087 35.7729C174.152 35.6444 174.228 35.548 174.315 35.4837C174.403 35.4136 174.52 35.3786 174.666 35.3786C174.812 35.3786 174.929 35.4312 175.016 35.5363C175.104 35.6415 175.148 35.7642 175.148 35.9044V39.7601H174.403V36.6054C174.403 36.4243 174.359 36.3338 174.271 36.3338C174.219 36.3338 174.175 36.3513 174.14 36.3863C174.105 36.4214 174.064 36.4886 174.017 36.5879L172.423 39.8828L170.854 36.6054L170.775 36.4477C170.752 36.4185 170.717 36.398 170.67 36.3863C170.641 36.3863 170.609 36.4068 170.574 36.4477C170.562 36.471 170.553 36.4973 170.547 36.5265C170.541 36.5558 170.538 36.6054 170.538 36.6755V39.7601H170.276V35.9394C170.276 35.5947 170.442 35.4224 170.775 35.4224C170.939 35.4224 171.061 35.4516 171.143 35.51C171.231 35.5626 171.313 35.6736 171.388 35.843L172.685 38.6472Z" fill="#F9F9F9"/>
<path d="M179.882 36.8858C179.882 37.1312 179.821 37.3181 179.698 37.4467C179.576 37.5752 179.365 37.6394 179.067 37.6394H177.166V38.7611C177.166 39.0415 177.233 39.246 177.367 39.3745C177.508 39.4972 177.762 39.5585 178.13 39.5585C178.539 39.5585 178.81 39.4972 178.945 39.3745C179.079 39.2518 179.146 39.0328 179.146 38.7173H179.874C179.874 39.0912 179.733 39.3687 179.453 39.5498C179.173 39.7309 178.731 39.8214 178.13 39.8214C177.47 39.8214 177.011 39.7163 176.754 39.506C176.497 39.2898 176.368 38.9159 176.368 38.3843V36.7631C176.368 36.2899 176.52 35.9423 176.824 35.7204C177.128 35.4925 177.563 35.3786 178.13 35.3786C178.691 35.3786 179.123 35.4691 179.427 35.6502C179.73 35.8313 179.882 36.1118 179.882 36.4915V36.8858ZM179.094 36.4827C179.094 36.1673 179.038 35.954 178.927 35.843C178.793 35.7087 178.527 35.6415 178.13 35.6415C177.756 35.6415 177.502 35.7087 177.367 35.843C177.233 35.9657 177.166 36.1643 177.166 36.4389V37.3766H178.489C178.717 37.3766 178.875 37.3415 178.962 37.2714C179.05 37.2013 179.094 37.0698 179.094 36.8771V36.4827Z" fill="#F9F9F9"/>
<path d="M181.917 35.4662V37.175H183.88V35.4662H184.669V39.7601H183.88V37.4379H181.917V39.7601H181.128V35.4662H181.917Z" fill="#F9F9F9"/>
<path d="M185.629 35.4662H188.609V35.7291H187.531V39.7601H186.742V35.7291H185.629V35.4662Z" fill="#F9F9F9"/>
<path d="M0.815482 7.4411H13.2574V8.71971C11.6837 8.55578 10.0772 8.44923 8.43798 8.40006C6.79873 8.35088 4.96278 8.32629 2.93011 8.32629V15.8013C4.43822 15.8013 5.64306 15.7849 6.54465 15.7521C7.46263 15.7193 8.42979 15.6455 9.44612 15.5308V16.9569C8.42979 16.8422 7.46263 16.7684 6.54465 16.7356C5.64306 16.7028 4.43822 16.6864 2.93011 16.6864V25.0466H0.815482V7.4411Z" fill="#F9F9F9"/>
<path d="M22.9482 7.4411H29.833C31.0297 7.4411 32.087 7.66239 33.005 8.10499C33.9229 8.5312 34.6278 9.13772 35.1196 9.92455C35.6278 10.695 35.8818 11.5884 35.8818 12.6047C35.8818 13.8669 35.5048 14.9406 34.7508 15.8258C34.0131 16.6946 32.9804 17.2766 31.6526 17.5716L36.0786 25.0466H33.5951L29.2921 17.7683H25.0628V25.0466H22.9482V7.4411ZM29.7838 16.8832C31.0952 16.8832 32.087 16.5225 32.7591 15.8013C33.4476 15.0636 33.7918 13.9981 33.7918 12.6047C33.7918 11.2114 33.4476 10.154 32.7591 9.43278C32.087 8.69512 31.0952 8.32629 29.7838 8.32629H25.0628V16.8832H29.7838Z" fill="#F9F9F9"/>
<path d="M53.7463 25.4154C52.1726 25.4154 50.7547 25.022 49.4925 24.2352C48.2302 23.4319 47.2385 22.3336 46.5172 20.9403C45.796 19.5305 45.4353 17.9651 45.4353 16.2439C45.4353 14.5226 45.796 12.9654 46.5172 11.572C47.2385 10.1786 48.2302 9.08854 49.4925 8.3017C50.7547 7.49847 52.1726 7.09685 53.7463 7.09685C55.32 7.09685 56.7379 7.49847 58.0002 8.3017C59.2624 9.08854 60.2541 10.1786 60.9754 11.572C61.6966 12.9654 62.0573 14.5226 62.0573 16.2439C62.0573 17.9651 61.6966 19.5305 60.9754 20.9403C60.2541 22.3336 59.2624 23.4319 58.0002 24.2352C56.7379 25.022 55.32 25.4154 53.7463 25.4154ZM53.7463 24.5794C55.0085 24.5794 56.1068 24.2434 57.0412 23.5713C57.992 22.8992 58.7132 21.9402 59.205 20.6944C59.7132 19.4322 59.9672 17.9487 59.9672 16.2439C59.9672 14.539 59.7132 13.0637 59.205 11.8179C58.7132 10.5721 57.992 9.6131 57.0412 8.94101C56.1068 8.26892 55.0085 7.93287 53.7463 7.93287C52.4841 7.93287 51.3776 8.26892 50.4268 8.94101C49.4925 9.6131 48.7712 10.5721 48.263 11.8179C47.7713 13.0637 47.5254 14.539 47.5254 16.2439C47.5254 17.9487 47.7713 19.4322 48.263 20.6944C48.7712 21.9402 49.4925 22.8992 50.4268 23.5713C51.3776 24.2434 52.4841 24.5794 53.7463 24.5794Z" fill="#F9F9F9"/>
<path d="M85.1962 7.4411C85.0815 9.03117 85.0077 10.6786 84.9749 12.3834C84.9421 14.0882 84.9257 16.416 84.9257 19.3666V25.0466H84.1389L72.8773 9.23607V14.1784C72.8773 16.8012 72.8937 18.8994 72.9265 20.4731C72.9756 22.0468 73.0494 23.5713 73.1478 25.0466H71.7216C71.8363 23.4565 71.9101 21.8091 71.9429 20.1043C71.9757 18.3995 71.9921 16.0717 71.9921 13.1211V7.4411H74.2051L84.0405 21.2845V17.7929C84.0405 15.3341 84.016 13.3506 83.9668 11.8425C83.934 10.3344 83.8684 8.86724 83.7701 7.4411H85.1962Z" fill="#F9F9F9"/>
<path d="M100.021 8.32629C97.7427 8.32629 95.915 8.46563 94.538 8.7443L94.9068 7.4411H107.25L107.619 8.7443C106.242 8.46563 104.414 8.32629 102.136 8.32629V25.0466H100.021V8.32629Z" fill="#F9F9F9"/>
<path d="M117.488 7.4411H119.603V25.0466H117.488V7.4411Z" fill="#F9F9F9"/>
<path d="M131.018 7.4411H143.411L143.78 8.71971C141.141 8.45743 137.592 8.32629 133.133 8.32629V15.8013C134.641 15.8013 135.846 15.7849 136.748 15.7521C137.666 15.7193 138.633 15.6455 139.649 15.5308V16.9569C138.633 16.8422 137.666 16.7684 136.748 16.7356C135.846 16.7028 134.641 16.6864 133.133 16.6864V24.1614C137.592 24.1614 141.141 24.0303 143.78 23.768L143.411 25.0466H131.018V7.4411Z" fill="#F9F9F9"/>
<path d="M153.944 7.4411H160.828C162.025 7.4411 163.082 7.66239 164 8.10499C164.918 8.5312 165.623 9.13772 166.115 9.92455C166.623 10.695 166.877 11.5884 166.877 12.6047C166.877 13.8669 166.5 14.9406 165.746 15.8258C165.008 16.6946 163.976 17.2766 162.648 17.5716L167.074 25.0466H164.59L160.287 17.7683H156.058V25.0466H153.944V7.4411ZM160.779 16.8832C162.091 16.8832 163.082 16.5225 163.754 15.8013C164.443 15.0636 164.787 13.9981 164.787 12.6047C164.787 11.2114 164.443 10.154 163.754 9.43278C163.082 8.69512 162.091 8.32629 160.779 8.32629H156.058V16.8832H160.779Z" fill="#F9F9F9"/>
<path d="M182.524 25.44C181.147 25.44 179.918 25.1204 178.836 24.4811C177.754 23.8418 176.992 22.9812 176.549 21.8992L177.975 21.3091C178.139 22.2927 178.639 23.0877 179.475 23.6942C180.311 24.3007 181.336 24.604 182.549 24.604C183.745 24.604 184.696 24.3007 185.401 23.6942C186.122 23.0877 186.483 22.2763 186.483 21.2599C186.483 20.3911 186.27 19.6863 185.844 19.1453C185.434 18.588 184.917 18.1536 184.294 17.8421C183.672 17.5307 182.827 17.1946 181.762 16.834C180.663 16.457 179.778 16.1045 179.106 15.7767C178.451 15.4488 177.885 14.9816 177.41 14.3751C176.951 13.7522 176.721 12.9572 176.721 11.99C176.721 11.0392 176.967 10.195 177.459 9.45737C177.967 8.70332 178.664 8.12138 179.549 7.71157C180.434 7.28537 181.434 7.07227 182.549 7.07227C183.893 7.07227 185.081 7.39192 186.114 8.03123C187.163 8.65414 187.893 9.49835 188.302 10.5639L186.901 11.154C186.753 10.1704 186.278 9.3836 185.475 8.79347C184.688 8.18695 183.712 7.88369 182.549 7.88369C181.368 7.88369 180.409 8.19515 179.672 8.81806C178.95 9.42459 178.59 10.2278 178.59 11.2278C178.59 11.9162 178.77 12.49 179.131 12.949C179.508 13.3916 179.975 13.7522 180.532 14.0309C181.106 14.2931 181.885 14.5964 182.868 14.9406C184.049 15.3505 185.007 15.7521 185.745 16.1455C186.483 16.5225 187.106 17.0717 187.614 17.7929C188.138 18.4978 188.401 19.424 188.401 20.5715C188.401 21.5058 188.147 22.3418 187.638 23.0795C187.13 23.8172 186.425 24.3991 185.524 24.8253C184.639 25.2351 183.639 25.44 182.524 25.44Z" fill="#F9F9F9"/>
</svg>
